<svg width="64" height="64" viewBox="0 0 64 64" fill="none" xmlns="http://www.w3.org/2000/svg">
<path d="M50.6666 18.6667H13.3333C12.626 18.6667 11.9478 18.9477 11.4477 19.4478C10.9476 19.9479 10.6666 20.6262 10.6666 21.3334V56.0001C10.6666 56.7073 10.9476 57.3856 11.4477 57.8857C11.9478 58.3858 12.626 58.6667 13.3333 58.6667H50.6666C51.3739 58.6667 52.0522 58.3858 52.5522 57.8857C53.0523 57.3856 53.3333 56.7073 53.3333 56.0001V21.3334C53.3333 20.6262 53.0523 19.9479 52.5522 19.4478C52.0522 18.9477 51.3739 18.6667 50.6666 18.6667Z" stroke="black" stroke-width="5" stroke-linecap="round" stroke-linejoin="round"/>
<path d="M22.6666 24V14.6667C22.6666 13.441 22.908 12.2274 23.3771 11.095C23.8461 9.96262 24.5336 8.93372 25.4003 8.06704C26.267 7.20036 27.2959 6.51288 28.4282 6.04383C29.5606 5.57479 30.7743 5.33337 32 5.33337C33.2256 5.33337 34.4393 5.57479 35.5717 6.04383C36.704 6.51288 37.7329 7.20036 38.5996 8.06704C39.4663 8.93372 40.1538 9.96262 40.6228 11.095C41.0919 12.2274 41.3333 13.441 41.3333 14.6667V24" stroke="black" stroke-width="5" stroke-linecap="round" stroke-linejoin="round"/>
</svg>
