<svg width="64" height="64" viewBox="0 0 64 64" fill="none" xmlns="http://www.w3.org/2000/svg">
<mask id="path-1-inside-1_205_529" fill="white">
<path d="M32 5.33337C17.2534 5.33337 5.33337 17.2534 5.33337 32C5.33337 46.7467 17.2534 58.6667 32 58.6667C46.7467 58.6667 58.6667 46.7467 58.6667 32C58.6667 17.2534 46.7467 5.33337 32 5.33337ZM32 53.3334C20.2134 53.3334 10.6667 43.7867 10.6667 32C10.6667 20.2134 20.2134 10.6667 32 10.6667C43.7867 10.6667 53.3334 20.2134 53.3334 32C53.3334 43.7867 43.7867 53.3334 32 53.3334Z"/>
</mask>
<path d="M32 5.33337C17.2534 5.33337 5.33337 17.2534 5.33337 32C5.33337 46.7467 17.2534 58.6667 32 58.6667C46.7467 58.6667 58.6667 46.7467 58.6667 32C58.6667 17.2534 46.7467 5.33337 32 5.33337ZM32 53.3334C20.2134 53.3334 10.6667 43.7867 10.6667 32C10.6667 20.2134 20.2134 10.6667 32 10.6667C43.7867 10.6667 53.3334 20.2134 53.3334 32C53.3334 43.7867 43.7867 53.3334 32 53.3334Z" fill="black"/>
<path d="M32 -0.666626C13.9397 -0.666626 -0.666626 13.9397 -0.666626 32H11.3334C11.3334 20.5671 20.5671 11.3334 32 11.3334V-0.666626ZM-0.666626 32C-0.666626 50.0604 13.9397 64.6667 32 64.6667V52.6667C20.5671 52.6667 11.3334 43.433 11.3334 32H-0.666626ZM32 64.6667C50.0604 64.6667 64.6667 50.0604 64.6667 32H52.6667C52.6667 43.433 43.433 52.6667 32 52.6667V64.6667ZM64.6667 32C64.6667 13.9397 50.0604 -0.666626 32 -0.666626V11.3334C43.433 11.3334 52.6667 20.5671 52.6667 32H64.6667ZM32 47.3334C23.5271 47.3334 16.6667 40.473 16.6667 32H4.66671C4.66671 47.1004 16.8997 59.3334 32 59.3334V47.3334ZM16.6667 32C16.6667 23.5271 23.5271 16.6667 32 16.6667V4.66671C16.8997 4.66671 4.66671 16.8997 4.66671 32H16.6667ZM32 16.6667C40.473 16.6667 47.3334 23.5271 47.3334 32H59.3334C59.3334 16.8997 47.1004 4.66671 32 4.66671V16.6667ZM47.3334 32C47.3334 40.473 40.473 47.3334 32 47.3334V59.3334C47.1004 59.3334 59.3334 47.1004 59.3334 32H47.3334Z" fill="black" mask="url(#path-1-inside-1_205_529)"/>
</svg>
