<svg width="64" height="64" viewBox="0 0 64 64" fill="none" xmlns="http://www.w3.org/2000/svg">
<path d="M56 21.3333C55.999 20.398 55.7522 19.4794 55.2841 18.6697C54.8161 17.86 54.1433 17.1876 53.3333 16.7199L34.6667 6.05328C33.8559 5.58518 32.9362 5.33875 32 5.33875C31.0638 5.33875 30.1441 5.58518 29.3333 6.05328L10.6667 16.7199C9.8567 17.1876 9.18395 17.86 8.7159 18.6697C8.24785 19.4794 8.00096 20.398 8 21.3333V42.6666C8.00096 43.6019 8.24785 44.5204 8.7159 45.3302C9.18395 46.1399 9.8567 46.8123 10.6667 47.2799L29.3333 57.9466C30.1441 58.4147 31.0638 58.6611 32 58.6611C32.9362 58.6611 33.8559 58.4147 34.6667 57.9466L53.3333 47.2799C54.1433 46.8123 54.8161 46.1399 55.2841 45.3302C55.7522 44.5204 55.999 43.6019 56 42.6666V21.3333Z" stroke="black" stroke-width="5" stroke-linecap="round" stroke-linejoin="round"/>
<path d="M8.80005 18.6666L32 32M32 32L55.2001 18.6666M32 32V58.6666" stroke="black" stroke-width="5" stroke-linecap="round" stroke-linejoin="round"/>
</svg>
